# xmcd
#
# Track frame offsets: 
#        150
#        18635
#        41762
#        85135
#        127419
#        155976
#        195742
#        216422
#        242583
#        286946
#
# Disc length: 4270 seconds
#
# Revision: 0
# Processed by: cddbd v1.5.2PL0 Copyright (c) Steve Scherf et al.
# Submitted via: ExactAudioCopyFreeDBPlugin 1.0
#
DISCID=9a10ac0a
DTITLE=TC and The Moneymakers - Live At Scarborough Blues Club
DYEAR=1900
DGENRE=Blues
TTITLE0=Moneymaker Boogie
TTITLE1=Ice Cream Man
TTITLE2=Catfish Blues
TTITLE3=Annie Lee
TTITLE4=I Cry For You
TTITLE5=I'm The One
TTITLE6=My Babe
TTITLE7=Rock With Me
TTITLE8=Blue Minor
TTITLE9=The Sun Is Shining
EXTD=
EXTT0=
EXTT1=
EXTT2=
EXTT3=
EXTT4=
EXTT5=
EXTT6=
EXTT7=
EXTT8=
EXTT9=
PLAYORDER=
